<?xml version="1.0" encoding="UTF-8"?>
<svg id="Layer_1" data-name="Layer 1" xmlns="http://www.w3.org/2000/svg" width="603.14" height="362.45" viewBox="0 0 603.14 362.45">
  <defs>
    <style>
      .cls-1 {
        stroke: #5fc7ce;
        stroke-width: 7px;
      }

      .cls-1, .cls-2 {
        fill: none;
        stroke-linecap: square;
        stroke-miterlimit: 10;
      }

      .cls-3 {
        fill: #5fc7ce;
      }

      .cls-2 {
        stroke: #231f20;
        stroke-width: 3px;
      }

      .cls-4 {
        fill: #231f20;
      }
    </style>
  </defs>
  <g>
    <path class="cls-4" d="M133.91,125.68c1.48,10.47,5.84,16.66,13.94,16.66,9.01,0,12.46-7.2,12.46-15.76s-2.46-14.41-13.31-18.68c-10.42-4.16-14.93-9.57-14.93-20.93,0-10.35,4.72-20.03,15.28-20.03s15.42,10.58,16.06,20.15h-3.94c-1.13-8.44-4.58-14.52-12.32-14.52-7.11,0-10.99,5.29-10.99,14.07s3.24,12.04,12.32,15.64c13.87,5.52,15.91,14.41,15.91,23.86,0,11.59-5.28,21.61-16.69,21.61-12.32,0-16.83-11.48-17.75-22.06h3.94Z"/>
    <path class="cls-4" d="M198.13,136.15c0,4.95,.28,8.89,.49,10.69h-3.38c-.28-1.35-.49-3.83-.63-8.67-1.2,4.16-4.3,10.02-11.55,10.02-8.17,0-11.69-8.44-11.69-16.88,0-12.38,5.99-18.01,16.55-18.01h6.69v-5.74c0-5.63-1.06-13.17-9.08-13.17-7.11,0-8.17,5.96-8.94,10.58h-3.52c.42-6.19,2.82-15.76,12.53-15.76,8.03,0,12.53,5.4,12.53,17.78v29.15Zm-3.45-18.01h-6.9c-7.82,0-12.68,3.26-12.68,12.94,0,7.09,3.17,11.93,8.1,11.93,10.07,0,11.48-10.69,11.48-22.85v-2.03Z"/>
    <path class="cls-4" d="M209.75,105.87c0-9.45-.07-13.51-.07-15.31h3.45c.07,1.8,.14,5.4,.14,12.61,2.04-8.44,6.55-13.51,12.25-13.96v6.08c-7.32,.79-12.25,8.89-12.25,22.28v29.26h-3.52v-40.97Z"/>
    <path class="cls-4" d="M255.52,136.15c0,4.95,.28,8.89,.49,10.69h-3.38c-.28-1.35-.49-3.83-.63-8.67-1.2,4.16-4.3,10.02-11.55,10.02-8.17,0-11.69-8.44-11.69-16.88,0-12.38,5.99-18.01,16.55-18.01h6.69v-5.74c0-5.63-1.06-13.17-9.08-13.17-7.11,0-8.17,5.96-8.94,10.58h-3.52c.42-6.19,2.82-15.76,12.53-15.76,8.03,0,12.53,5.4,12.53,17.78v29.15Zm-3.45-18.01h-6.9c-7.82,0-12.68,3.26-12.68,12.94,0,7.09,3.17,11.93,8.1,11.93,10.07,0,11.48-10.69,11.48-22.85v-2.03Z"/>
    <path class="cls-4" d="M270.66,63.89v36.13c1.97-5.85,5.42-10.8,11.62-10.8,5,0,11.9,4.05,11.9,21.83v35.79h-3.52v-34.67c0-11.14-3.17-17.44-9.01-17.44-6.97,0-10.99,6.87-10.99,20.71v31.4h-3.52V63.89h3.52Z"/>
    <path class="cls-4" d="M29.27,219.47c1.48,10.47,5.84,16.66,13.94,16.66,9.01,0,12.46-7.2,12.46-15.76s-2.46-14.41-13.31-18.68c-10.42-4.16-14.93-9.57-14.93-20.93,0-10.35,4.72-20.03,15.28-20.03s15.42,10.58,16.06,20.15h-3.94c-1.13-8.44-4.58-14.52-12.32-14.52-7.11,0-10.99,5.29-10.99,14.07s3.24,12.04,12.32,15.64c13.87,5.52,15.91,14.41,15.91,23.86,0,11.59-5.28,21.61-16.69,21.61-12.32,0-16.83-11.48-17.75-22.06h3.94Z"/>
    <path class="cls-4" d="M95.33,224.09c-1.69,9.9-5.77,17.9-13.66,17.9-8.8,0-15.07-10.47-15.07-29.26,0-15.42,5.14-29.71,15.49-29.71,8.94,0,12.6,10.13,13.24,18.01h-3.59c-1.06-6.53-3.73-12.72-9.72-12.72-7.46,0-11.69,10.13-11.69,24.2s3.94,24.2,11.34,24.2c5.14,0,8.24-4.16,10.07-12.61h3.59Z"/>
    <path class="cls-4" d="M107.01,157.68v36.13c1.97-5.85,5.42-10.8,11.62-10.8,5,0,11.9,4.05,11.9,21.83v35.79h-3.52v-34.67c0-11.14-3.17-17.44-9.01-17.44-6.97,0-10.99,6.87-10.99,20.71v31.4h-3.52v-82.95h3.52Z"/>
    <path class="cls-4" d="M141.17,184.36c5.21,29.04,8.24,45.69,8.8,50.65h.07c.56-4.5,4.08-22.17,9.58-50.65h3.8c6.55,34.78,8.52,44.79,9.15,49.18h.07c.99-6.19,2.61-14.63,9.08-49.18h3.73l-11.13,56.27h-3.87c-3.8-19.92-8.38-44.34-9.08-49.52h-.07c-.7,5.52-4.72,25.66-9.3,49.52h-4.23l-10.35-56.27h3.73Z"/>
    <path class="cls-4" d="M216.37,229.94c0,4.95,.28,8.89,.49,10.69h-3.38c-.28-1.35-.49-3.83-.63-8.67-1.2,4.16-4.3,10.02-11.55,10.02-8.17,0-11.69-8.44-11.69-16.88,0-12.38,5.99-18.01,16.55-18.01h6.69v-5.74c0-5.63-1.06-13.17-9.08-13.17-7.11,0-8.17,5.96-8.94,10.58h-3.52c.42-6.19,2.82-15.76,12.53-15.76,8.03,0,12.53,5.4,12.53,17.78v29.15Zm-3.45-18.01h-6.9c-7.82,0-12.68,3.26-12.68,12.94,0,7.09,3.17,11.93,8.1,11.93,10.07,0,11.48-10.69,11.48-22.85v-2.03Z"/>
    <path class="cls-4" d="M227.99,199.66c0-9.45-.07-13.51-.07-15.31h3.45c.07,1.8,.14,5.4,.14,12.61,2.04-8.44,6.55-13.51,12.25-13.96v6.08c-7.32,.79-12.25,8.89-12.25,22.28v29.26h-3.52v-40.97Z"/>
    <path class="cls-4" d="M247.71,184.36h6.55v-17.56h3.52v17.56h8.38v5.29h-8.38v36.58c0,6.3,.84,9.9,4.23,9.9,1.06,0,2.54-.11,3.66-.68v4.95c-1.2,.79-2.89,1.01-4.37,1.01-4.51,0-7.04-3.6-7.04-12.61v-39.17h-6.55v-5.29Z"/>
    <path class="cls-4" d="M271.58,235.45l22.25-45.81h-21.13v-5.29h25.21v5.4l-21.97,45.58h22.75l-.85,5.29h-26.27v-5.18Z"/>
  </g>
  <g>
    <path class="cls-3" d="M346.41,57.52v62.68c0,6.02,1.46,9.44,5.1,9.44s4.94-3.85,4.94-9.43V57.52h9.42v62.43c0,13-4.35,21.17-14.54,21.17s-14.34-7.09-14.34-21.13V57.52h9.41Z"/>
    <path class="cls-3" d="M383.22,57.52v82.4h-9.41V57.52h9.41Z"/>
    <path class="cls-3" d="M337.35,159.97h13.06c12.95,0,16.1,9.06,16.1,24.35v31.6c0,12.6-1.6,26.45-16.11,26.45h-13.04v-82.4Zm9.41,71.58h3.02c6.19,0,7.14-5.38,7.14-13.91v-34.33c0-7.58-.99-12.42-7.19-12.42h-2.96v60.65Z"/>
    <path class="cls-3" d="M381.59,213.83v9.38c0,4.93,.84,9.44,4.42,9.44,3.75,0,4.21-4.53,4.21-9.12v-.31h9.17v.29c0,6.7-1.06,19.85-13.17,19.85s-13.81-10.07-13.81-22.98v-20.92c0-8.73,2.04-21.92,13.76-21.92,10.1,0,13.39,9.19,13.39,21.82v14.47h-17.98Zm8.96-9.95v-6.54c0-5.91-1.01-9.1-4.38-9.1-3.03,0-4.5,2.9-4.5,9.11v6.52h8.88Z"/>
    <path class="cls-3" d="M413.49,222.38v2.92c0,3.94,.82,7.34,3.83,7.34,2.56,0,3.65-2.1,3.65-6.35s-.86-6.97-6.59-11.96c-6.5-5.64-9.63-10.27-9.63-19.41,0-10.8,4.3-17.39,12.53-17.39,8.94,0,12.49,6.66,12.49,18.36v2.56h-9.09v-3.94c0-4.45-1.11-6.27-3.34-6.27s-3.24,2.27-3.24,5.65c0,3.58,.89,5.2,5.19,8.91,8.28,7.11,11.2,11.63,11.2,22.08,0,12.22-4.54,18.47-13.43,18.47-10.63,0-13.06-9.02-13.06-18.13v-2.84h9.5Z"/>
    <path class="cls-3" d="M436.39,178.52h9.41v63.85h-9.41v-63.85Zm.08-22.14h9.41v13.58h-9.41v-13.58Z"/>
    <path class="cls-3" d="M480.16,238.81c0,14.16-1.02,25.95-14.48,25.95-11.26,0-13.15-9.54-13.15-16.62v-.26h9.42v.28c0,1.74,.47,6.11,4.24,6.11s4.56-4.04,4.56-12.1v-6.97c-1.2,3.54-3.82,5.87-7.79,5.87-8.62,0-10.5-9.05-10.5-20.01v-24.12c0-8.68,2.42-19.41,11.5-19.41,4.97,0,7.01,3.13,7.8,6.62,0-1.93,.26-4.57,.44-5.63h8.15c-.09,3.94-.18,9.22-.18,15.95v44.34Zm-18.28-41.09v22.41c0,6.49,1.12,9.76,4.18,9.76,4.02,0,4.7-4.27,4.7-12.09v-18.71c0-5.44-.41-10.17-4.21-10.17-3.01,0-4.67,2.6-4.67,8.79Z"/>
    <path class="cls-3" d="M488.01,198.22c0-12.97,0-16.8-.09-19.7h8.99c.17,1.47,.34,3.97,.34,5.81,1.37-3.7,3.9-6.79,8.72-6.79,5.75,0,9.71,4.71,9.71,16.78v48.06h-9.41v-45.66c0-5.76-1.47-7.79-4.07-7.79-3.35,0-4.78,2.4-4.78,11.07v42.37h-9.41v-44.15Z"/>
    <path class="cls-3" d="M531.44,213.83v9.38c0,4.93,.84,9.44,4.42,9.44,3.75,0,4.21-4.53,4.21-9.12v-.31h9.17v.29c0,6.7-1.06,19.85-13.17,19.85s-13.81-10.07-13.81-22.98v-20.92c0-8.73,2.04-21.92,13.76-21.92,10.1,0,13.39,9.19,13.39,21.82v14.47h-17.98Zm8.96-9.95v-6.54c0-5.91-1.01-9.1-4.38-9.1-3.03,0-4.5,2.9-4.5,9.11v6.52h8.88Z"/>
    <path class="cls-3" d="M555.72,200.16c0-10.6,.08-15.12-.09-21.64h8.92c.09,1.23,.26,6.91,.26,10.34,1.88-8.63,6.03-11.26,10.42-11.29v15.66c-5.4,.01-10.1,1.86-10.1,14.94v34.2h-9.41v-42.21Z"/>
  </g>
  <line class="cls-1" x1="317.35" y1="60.07" x2="317.14" y2="239.82"/>
  <rect class="cls-2" x="6.5" y="28.82" width="584.37" height="250.32"/>
</svg>